<?xml version="1.0" standalone="no"?>
<!DOCTYPE svg PUBLIC "-//W3C//DTD SVG 20010904//EN"
 "http://www.w3.org/TR/2001/REC-SVG-20010904/DTD/svg10.dtd">
<svg version="1.0" xmlns="http://www.w3.org/2000/svg"
 width="1000.000000pt" height="1000.000000pt" viewBox="0 0 1000.000000 1000.000000"
 preserveAspectRatio="xMidYMid meet">
<metadata>
Created by potrace 1.14, written by Peter Selinger 2001-2017
</metadata>
<g transform="translate(0.000000,1000.000000) scale(0.100000,-0.100000)"
fill="#000000" stroke="none">
<path d="M10 4995 l0 -4995 4995 0 4995 0 0 4995 0 4995 -4995 0 -4995 0 0
-4995z m4300 3480 c0 -244 -3 -317 -12 -320 -7 -3 -191 -32 -408 -65 -217 -33
-405 -63 -417 -65 l-23 -5 0 -1195 0 -1195 1550 0 1550 0 0 1195 c0 657 -1
1195 -2 1195 -2 1 -178 31 -393 68 l-390 67 -3 318 -2 317 1535 0 1535 0 0
-318 0 -318 -372 -64 c-205 -34 -379 -65 -386 -67 -10 -4 -12 -621 -10 -3056
l3 -3051 383 -50 382 -50 0 -308 0 -308 -1540 0 -1540 0 0 305 c0 236 3 307
13 310 6 2 176 25 377 50 201 25 375 48 388 51 l22 4 0 1295 0 1295 -1550 0
-1550 0 0 -1295 0 -1295 23 -5 c12 -2 200 -25 417 -50 217 -25 401 -48 408
-50 9 -3 12 -74 12 -310 l0 -305 -1565 0 -1565 0 0 308 0 308 383 50 382 50 0
3054 0 3054 -372 65 -373 65 0 318 0 318 1555 0 1555 0 0 -315z"/>
</g>
</svg>
